<svg width="220" height="220" viewBox="0 0 220 220" fill="none" xmlns="http://www.w3.org/2000/svg">
<circle cx="110" cy="110" r="109" stroke="#F0F0F0" stroke-width="2" stroke-dasharray="10 10"/>
<ellipse cx="109.5" cy="107.493" rx="102.5" ry="100.493" fill="#5D3128"/>
<mask id="mask0_7892_2087" style="mask-type:alpha" maskUnits="userSpaceOnUse" x="7" y="10" width="205" height="201">
<ellipse cx="109.5" cy="110.493" rx="102.5" ry="100.493" fill="#C4C4C4"/>
</mask>
<g mask="url(#mask0_7892_2087)">
<path d="M108.628 97.2383V8.71875H45.8191C33.1702 8.71875 -12.1915 49.3437 -18.2979 68.1594C-24.4043 86.9752 -92.0106 140.429 -105.096 162.666C-118.181 184.903 128.255 249.902 148.755 251.185C165.155 252.212 193.39 183.762 205.457 149.409L108.628 97.2383Z" fill="#FEAD04"/>
</g>
<ellipse cx="109.5" cy="107.494" rx="79.5" ry="77.9435" fill="white"/>
<path d="M87.4131 126.645C79.9731 126.645 74.0131 124.165 69.5331 119.205L76.8531 111.885C79.9731 115.085 83.3131 116.685 86.8731 116.685C88.5131 116.685 89.8131 116.305 90.7731 115.545C91.7731 114.745 92.2731 113.665 92.2731 112.305C92.2731 110.945 91.6731 109.885 90.4731 109.125C89.2731 108.365 87.5931 107.985 85.4331 107.985H80.5131L78.8331 101.925L88.4931 93.2247H72.4131V83.8047H102.773V92.1447L92.7531 100.725C99.9931 102.325 103.613 106.305 103.613 112.665C103.613 116.865 102.093 120.245 99.0531 122.805C96.0531 125.365 92.1731 126.645 87.4131 126.645ZM141.659 120.345C138.099 124.545 133.399 126.645 127.559 126.645C121.719 126.645 117.019 124.565 113.459 120.405C109.939 116.205 108.179 111.005 108.179 104.805C108.179 98.6847 109.979 93.5247 113.579 89.3247C117.179 85.0847 121.879 82.9647 127.679 82.9647C133.519 82.9647 138.199 85.0647 141.719 89.2647C145.279 93.4647 147.059 98.6447 147.059 104.805C147.059 110.925 145.259 116.105 141.659 120.345ZM122.039 113.145C123.479 115.265 125.359 116.325 127.679 116.325C129.999 116.325 131.859 115.265 133.259 113.145C134.659 110.985 135.359 108.205 135.359 104.805C135.359 101.445 134.619 98.6847 133.139 96.5247C131.699 94.3647 129.839 93.2847 127.559 93.2847C125.239 93.2847 123.379 94.3447 121.979 96.4647C120.579 98.5847 119.879 101.365 119.879 104.805C119.879 108.205 120.599 110.985 122.039 113.145Z" fill="#FEAD04"/>
</svg>
